<svg width="16" height="16" viewBox="0 0 16 16" fill="none" xmlns="http://www.w3.org/2000/svg">
<g clip-path="url(#clip0_57_3437)">
<path fill-rule="evenodd" clip-rule="evenodd" d="M3.75632 6.28816L3.93329 5.75725H3.63632C3.36844 5.75725 3.15147 5.54028 3.15147 5.2724C3.15147 5.00452 3.36844 4.78755 3.63632 4.78755C3.93329 4.78755 4.25644 4.78755 4.25644 4.78755C4.25644 4.78755 4.48772 4.09374 4.63099 3.66465C4.69693 3.46659 4.88214 3.33301 5.09087 3.33301C6.22226 3.33301 9.77766 3.33301 10.909 3.33301C11.1178 3.33301 11.303 3.46659 11.3689 3.66465L11.7435 4.78755H12.3636C12.6315 4.78755 12.8484 5.00452 12.8484 5.2724C12.8484 5.54028 12.6315 5.75725 12.3636 5.75725H12.0666L12.2436 6.28816C12.8703 6.4501 13.3333 7.01931 13.3333 7.69664V12.0603C13.3333 12.3282 13.1163 12.5451 12.8484 12.5451C12.5522 12.5451 12.175 12.5451 11.8787 12.5451C11.6109 12.5451 11.3939 12.3282 11.3939 12.0603V11.5754H4.60602V12.0603C4.60602 12.3282 4.38905 12.5451 4.12117 12.5451C3.82493 12.5451 3.44772 12.5451 3.15147 12.5451C2.8836 12.5451 2.66663 12.3282 2.66663 12.0603C2.66663 11.1381 2.66663 9.09834 2.66663 7.69664C2.66663 7.01931 3.12966 6.4501 3.75632 6.28816ZM4.60602 8.18149C4.8739 8.18149 5.09087 8.39846 5.09087 8.66634C5.09087 8.93422 4.8739 9.15119 4.60602 9.15119C4.18299 9.15119 3.63632 9.15119 3.63632 9.15119V10.6057H5.27608C5.27608 10.6057 5.84578 9.46658 6.11172 8.93446C6.1939 8.7701 6.36166 8.66634 6.54541 8.66634C7.2082 8.66634 8.79172 8.66634 9.4545 8.66634C9.63826 8.66634 9.80602 8.7701 9.8882 8.93446C10.1541 9.46658 10.7238 10.6057 10.7238 10.6057H12.3636V9.15119H11.3939C11.126 9.15119 10.909 8.93422 10.909 8.66634C10.909 8.39846 11.126 8.18149 11.3939 8.18149C11.8169 8.18149 12.3636 8.18149 12.3636 8.18149V7.69664C12.3636 7.42877 12.1466 7.2118 11.8787 7.2118C10.351 7.2118 5.64893 7.2118 4.12117 7.2118C3.85329 7.2118 3.63632 7.42877 3.63632 7.69664V8.18149H4.60602ZM9.15487 9.63604H6.84505L6.3602 10.6057H9.63972L9.15487 9.63604ZM5.44044 4.3027L4.7939 6.2421H11.206L10.5595 4.3027H5.44044Z" fill="#222222"/>
</g>
<defs>
<clipPath id="clip0_57_3437">
<rect width="16" height="16" fill="white"/>
</clipPath>
</defs>
</svg>
