<svg width="24" height="24" viewBox="0 0 24 24" fill="none" xmlns="http://www.w3.org/2000/svg">
<path d="M22.2825 21.2175L17.4075 16.3425H17.355C18.8576 14.5708 19.6169 12.2867 19.4741 9.96804C19.3314 7.64935 18.2975 5.47568 16.5889 3.90172C14.8803 2.32777 12.6293 1.47545 10.3067 1.52307C7.98408 1.57069 5.76986 2.51455 4.12719 4.15722C2.48452 5.79989 1.54066 8.01411 1.49304 10.3367C1.44542 12.6593 2.29774 14.9103 3.87169 16.6189C5.44565 18.3276 7.61932 19.3614 9.93801 19.5042C12.2567 19.6469 14.5408 18.8876 16.3125 17.385C16.3125 17.385 16.3125 17.4225 16.3125 17.4375L21.1875 22.3125C21.2572 22.3828 21.3402 22.4386 21.4315 22.4767C21.5229 22.5148 21.621 22.5344 21.72 22.5344C21.819 22.5344 21.917 22.5148 22.0084 22.4767C22.0998 22.4386 22.1828 22.3828 22.2525 22.3125C22.3294 22.2444 22.3915 22.1613 22.4349 22.0682C22.4783 21.9752 22.5022 21.8742 22.505 21.7715C22.5078 21.6689 22.4895 21.5667 22.4513 21.4714C22.413 21.3761 22.3555 21.2897 22.2825 21.2175ZM10.5 18C9.01662 18 7.56657 17.5601 6.3332 16.736C5.09983 15.9119 4.13854 14.7406 3.57088 13.3701C3.00323 11.9997 2.8547 10.4917 3.14409 9.03683C3.43348 7.58197 4.14779 6.2456 5.19668 5.19671C6.24557 4.14781 7.58195 3.43351 9.0368 3.14412C10.4917 2.85473 11.9997 3.00326 13.3701 3.57091C14.7406 4.13857 15.9119 5.09986 16.736 6.33323C17.5601 7.5666 18 9.01665 18 10.5C18 11.4849 17.806 12.4602 17.4291 13.3701C17.0522 14.2801 16.4997 15.1069 15.8033 15.8033C15.1068 16.4997 14.28 17.0522 13.3701 17.4291C12.4602 17.806 11.4849 18 10.5 18Z" fill="#111111"/>
</svg>
