<?xml version="1.0" encoding="UTF-8" standalone="no"?>
<svg
   width="46"
   height="46"
   viewBox="0 0 46 46"
   fill="none"
   version="1.1"
   id="svg1"
   sodipodi:docname="verified.svg"
   inkscape:version="1.4 (e7c3feb100, 2024-10-09)"
   xmlns:inkscape="http://www.inkscape.org/namespaces/inkscape"
   xmlns:sodipodi="http://sodipodi.sourceforge.net/DTD/sodipodi-0.dtd"
   xmlns="http://www.w3.org/2000/svg"
   xmlns:svg="http://www.w3.org/2000/svg">
  <defs
     id="defs1" />
  <sodipodi:namedview
     id="namedview1"
     pagecolor="#505050"
     bordercolor="#eeeeee"
     borderopacity="1"
     inkscape:showpageshadow="0"
     inkscape:pageopacity="0"
     inkscape:pagecheckerboard="0"
     inkscape:deskcolor="#505050"
     inkscape:zoom="14.5"
     inkscape:cx="23.034483"
     inkscape:cy="23"
     inkscape:window-width="1600"
     inkscape:window-height="876"
     inkscape:window-x="0"
     inkscape:window-y="0"
     inkscape:window-maximized="1"
     inkscape:current-layer="svg1" />
  <circle
     cx="23"
     cy="23"
     r="21"
     fill="#BDAC8D"
     stroke="white"
     stroke-width="4"
     id="circle1" />
  <path
     d="m 30,19 c 0,0.25587 -0.0977,0.51187 -0.293,0.70687 l -7.99997,8 C 21.5125,27.90312 21.25625,28 21,28 20.74375,28 20.48813,27.90234 20.29313,27.70703 l -4.000005,-4 C 16.097812,23.5125 16,23.25625 16,23 c 0,-0.57125 0.467188,-1 1,-1 0.25587,0 0.51188,0.09766 0.70688,0.29297 L 21,25.5875 28.2937,18.29375 C 28.4875,18.097812 28.7437,18 29,18 c 0.5344,0 1,0.428125 1,1 z"
     fill="#ffffff"
     id="path1" />
</svg>
